<svg xmlns="http://www.w3.org/2000/svg" viewBox="0 0 512 512">
<path d="M365.489+512.007L233.274+512.007L230.488+511.808C140.612+503.09+80.4467+430.966+81.0038+332.884L81.0038+63.4064C81.0038+28.3348+107.558+0+140.426+0C173.295+0+199.849+28.3348+199.849+63.4064L199.849+156.931L372.361+158.714C405.229+159.111+431.597+187.644+431.226+222.715C430.853+257.589+404.299+285.527+371.802+285.527C371.617+285.527+371.431+285.527+371.246+285.527L199.849+283.743L199.849+333.083C199.664+378.06+226.032+383.808+238.845+385.195L365.489+385.195C398.357+385.195+424.911+413.528+424.911+448.601C424.911+483.672+398.357+512.007+365.489+512.007Z"/>
</svg>
