<svg xmlns="http://www.w3.org/2000/svg" viewBox="0 0 512 512">
<path d="M483.84+352.142C448.853+352.142+415.004+346.453+383.431+336.213C373.476+332.8+362.382+335.36+354.702+343.04L310.044+399.076C229.547+360.676+154.169+288.142+114.062+204.8L169.529+157.582C177.209+149.618+179.484+138.524+176.356+128.569C165.831+96.9956+160.427+63.1467+160.427+28.16C160.427+12.8+147.627+0+132.267+0L33.8489+0C18.4889-8.05325e-06+0+6.82666+0+28.16C0+292.409+219.876+512+483.84+512C504.036+512+512+494.08+512+478.436L512+380.302C512+364.942+499.2+352.142+483.84+352.142Z"/>
</svg>
