<svg xmlns="http://www.w3.org/2000/svg" viewBox="0 0 512 512">
<path d="M116.232+501.403L116.232+171.189L6.48355+171.189L6.48355+501.403C6.48355+501.403+116.232+501.403+116.232+501.403ZM61.3783+126.101C99.6242+126.101+123.466+100.743+123.466+69.0507C122.757+36.6552+99.6242+12+62.097+12C24.538+12+0+36.6552+0+69.0507C0+100.743+23.8099+126.101+60.6534+126.101L61.3783+126.101L61.3783+126.101Z" opacity="1" fill="#000000"/>
<path d="M176.971+501.406L286.739+501.406L286.739+317C286.739+307.126+287.455+297.261+290.358+290.211C298.272+270.481+316.346+250.065+346.659+250.065C386.38+250.065+402.257+280.356+402.257+324.74L402.257+501.406L512.003+501.406L512.003+312.058C512.003+210.628+457.867+163.436+385.646+163.436C326.442+163.436+300.438+196.518+285.998+219.062L286.739+219.062L286.739+171.189L176.971+171.189C178.427+202.169+176.971+501.406+176.971+501.406L176.971+501.406Z"/>
</svg>
