<svg xmlns="http://www.w3.org/2000/svg" viewBox="0 0 512 512">
<path d="M512+467.692L359.286+314.954C383.897+281.134+397.136+240.374+397.095+198.548C397.095+89.0708+308.025+0+198.548+0C89.0708+0+0+89.0708+0+198.548C0+308.025+89.0708+397.095+198.548+397.095C240.374+397.136+281.134+383.897+314.954+359.286L467.692+512L512+467.692ZM198.548+334.388C123.515+334.394+62.6854+273.572+62.6831+198.539C62.6808+123.507+123.507+62.6808+198.539+62.6831C273.572+62.6853+334.395+123.515+334.388+198.548C334.3+273.534+273.534+334.3+198.548+334.388Z"/>
</svg>
