<svg xmlns="http://www.w3.org/2000/svg" viewBox="0 0 512 512">
<path d="M373.248+306.832C366.832+303.584+335.584+288.336+329.744+286.16C323.904+284.08+319.664+282.992+315.408+289.408C311.248+295.664+298.992+309.984+295.248+314.16C291.504+318.336+287.824+318.656+281.504+315.824C275.088+312.576+254.592+305.904+230.256+284.08C211.248+267.168+198.592+246.336+194.832+239.92C191.088+233.584+194.416+230+197.584+226.832C200.496+223.92+204+219.504+207.248+215.664C210.336+211.824+211.328+209.248+213.584+205.088C215.664+200.592+214.592+197.088+213.008+193.92C211.424+190.752+198.672+159.344+193.344+146.832C188.256+134.416+182.928+136+179.008+136C175.344+135.664+171.088+135.664+166.848+135.664C162.608+135.664+155.68+137.248+149.84+143.328C144+149.744+127.504+165.072+127.504+196.08C127.504+227.168+150.336+257.248+153.504+261.744C156.752+265.904+198.416+329.904+262.336+357.408C277.584+363.824+289.424+367.664+298.672+370.832C313.92+375.664+327.84+374.992+338.832+373.408C350.992+371.408+376.496+357.984+381.84+342.992C387.264+327.904+387.264+315.408+385.68+312.576C384.096+309.664+379.936+308.08+373.52+305.248L373.248+306.832ZM257.328+464L256.992+464C219.152+464+181.744+453.744+149.072+434.576L141.408+430L61.408+450.832L82.912+372.992L77.744+364.992C56.656+331.408+45.408+292.656+45.408+252.832C45.408+136.672+140.496+41.92+257.488+41.92C314.16+41.92+367.328+64+407.328+104C447.328+143.664+469.408+196.832+469.408+253.168C469.248+369.248+374.24+464+257.408+464L257.328+464ZM437.744+73.584C389.072+26.576+325.072+0+256.992+0C116.576+0+2.24+113.84+2.16+253.744C2.16+298.416+13.824+342+36.16+380.576L-7.15256e-07+512L135.168+476.752C172.416+496.832+214.336+507.584+257.008+507.664L257.088+507.664C397.584+507.664+511.92+393.824+512+253.824C512+186.08+485.584+122.32+437.424+74.4L437.744+73.584Z" opacity="1" fill="#000000"/>
</svg>
